# xmcd
#
# Track frame offsets: 
#        150
#        15050
#        30718
#        45463
#        58278
#        70811
#        93115
#        102685
#        115202
#        131319
#        144391
#        156674
#
# Disc length: 2324 seconds
#
# Revision: 0
# Processed by: cddbd v1.5.2PL0 Copyright (c) Steve Scherf et al.
# Submitted via: ExactAudioCopy v0.99pb4
#
DISCID=9d09120c
DTITLE=Paul Yandell - Dream Train
DYEAR=2004
DGENRE=Instrumental
TTITLE0=Dream Train
TTITLE1=Lookin' Up
TTITLE2=Mayfield
TTITLE3=Say It Again
TTITLE4=Clear Spring Blues #2
TTITLE5=Kentucky Blue
TTITLE6=Shanty Town
TTITLE7=Shine
TTITLE8=Arilyn Roe
TTITLE9=My Pal
TTITLE10=Nashville Boogie
TTITLE11=SleepWalk
EXTD=
EXTT0=
EXTT1=
EXTT2=
EXTT3=
EXTT4=
EXTT5=
EXTT6=
EXTT7=
EXTT8=
EXTT9=
EXTT10=
EXTT11=
PLAYORDER=
